<?xml version="1.0" encoding="utf-8"?>
<!-- Generator: Adobe Illustrator 19.0.0, SVG Export Plug-In . SVG Version: 6.00 Build 0)  -->
<svg version="1.1" id="Layer_1" xmlns="http://www.w3.org/2000/svg" xmlns:xlink="http://www.w3.org/1999/xlink" x="0px" y="0px"
	 viewBox="-255 347 100 100" style="enable-background:new -255 347 100 100;" xml:space="preserve">
<style type="text/css">
	.st0{fill:#EF5350;}
	.st1{fill:#BBDEFB;}
	.st2{fill:#E0E0E0;}
</style>
<g>
	<path class="st0" d="M-205,424.3c-15.1,0-27.3-12.3-27.3-27.3c0-4.5,1.1-8.9,3.2-12.9c0.4-0.7,1.2-1,1.9-0.6c0.7,0.4,1,1.2,0.6,1.9
		c-1.9,3.5-2.9,7.5-2.9,11.5c0,13.5,11,24.5,24.5,24.5c13.5,0,24.5-11,24.5-24.5s-11-24.5-24.5-24.5c-3.5,0-7,0.7-10.2,2.2
		c-0.7,0.3-1.6,0-1.9-0.7c-0.3-0.7,0-1.6,0.7-1.9c3.6-1.6,7.4-2.5,11.4-2.5c15.1,0,27.3,12.3,27.3,27.3
		C-177.7,412.1-189.9,424.3-205,424.3z"/>
</g>
<g>
	<path class="st1" d="M-205,444.5c-26.2,0-47.5-21.3-47.5-47.5s21.3-47.5,47.5-47.5c7.9,0,15.8,2,22.7,5.8c0.7,0.4,1,1.3,0.6,2
		c-0.4,0.7-1.3,1-2,0.6c-6.5-3.5-13.9-5.4-21.3-5.4c-24.6,0-44.6,20-44.6,44.6s20,44.6,44.6,44.6s44.6-20,44.6-44.6
		c0-7.5-1.9-14.8-5.4-21.3c-0.4-0.7-0.1-1.6,0.6-1.9c0.7-0.4,1.6-0.1,2,0.6c3.8,6.9,5.8,14.8,5.8,22.7
		C-157.5,423.2-178.8,444.5-205,444.5z"/>
</g>
<g>
	<path class="st1" d="M-172.2,378.9c-8.1,0-14.7-6.6-14.7-14.7s6.6-14.7,14.7-14.7s14.7,6.6,14.7,14.7
		C-157.5,372.3-164.1,378.9-172.2,378.9z M-172.2,352.4c-6.5,0-11.8,5.3-11.8,11.8c0,6.5,5.3,11.8,11.8,11.8s11.8-5.3,11.8-11.8
		C-160.4,357.7-165.7,352.4-172.2,352.4z"/>
</g>
<g>
	<path class="st0" d="M-223.4,387.5c-5.6,0-10.1-4.5-10.1-10.1c0-5.6,4.5-10.1,10.1-10.1c5.6,0,10.1,4.5,10.1,10.1
		C-213.3,383-217.8,387.5-223.4,387.5z M-223.4,370.2c-4,0-7.2,3.2-7.2,7.2c0,4,3.2,7.2,7.2,7.2c4,0,7.2-3.2,7.2-7.2
		C-216.2,373.5-219.4,370.2-223.4,370.2z"/>
</g>
<g>
	<path class="st2" d="M-205,408.5c-6.4,0-11.5-5.2-11.5-11.5s5.2-11.5,11.5-11.5s11.5,5.2,11.5,11.5S-198.6,408.5-205,408.5z
		 M-205,388.4c-4.8,0-8.6,3.9-8.6,8.6s3.9,8.6,8.6,8.6s8.6-3.9,8.6-8.6S-200.2,388.4-205,388.4z"/>
</g>
</svg>
