<svg fill="#4487DB" xmlns="http://www.w3.org/2000/svg" viewBox="0 0 503.44 503.44" x="0px" y="0px"><title>Asset 6Planet</title><g data-name="Layer 2"><g data-name="Layer 1"><path d="M48.59,369h-.14a5,5,0,0,1-4.86-5.14c.9-32,21.61-59.16,38.82-76.31,20.76-20.68,48-38.46,74.79-48.76C172.45,233,188.39,228,203.8,223.25c34.09-10.56,69.35-21.48,97.7-43,38.21-29,60.06-71.72,59.95-117.51a4.91,4.91,0,0,1,5-4.91h0a4.91,4.91,0,0,1,5,4.88c.12,49-23.17,94.69-63.91,125.56-29.75,22.54-65.86,33.7-100.78,44.52-15.25,4.72-31,9.6-46,15.35C135.28,258,109.28,275,89.47,294.69c-15.92,15.86-35.07,40.79-35.88,69.5A5,5,0,0,1,48.59,369Z"></path><path d="M79.17,415.46a10,10,0,0,1-7.8-16.25c27.8-34.71,79.35-51.78,124.84-66.83,9.48-3.14,18.43-6.1,26.77-9.1,76.35-27.46,141.16-85,198.33-135.86,9.4-8.36,19.13-17,27.19-26.5a10,10,0,1,1,15.25,12.95c-9,10.57-19.23,19.69-29.15,28.5-58.53,52-124.86,111-204.85,139.73-8.58,3.08-17.65,6.09-27.25,9.27C159.64,365.55,111.08,381.62,87,411.71A10,10,0,0,1,79.17,415.46Z"></path><path d="M158.39,445.23c-7.64,0-15.4-.1-23.28-.24a5,5,0,1,1,.18-10c60.42,1.08,113.86-.4,155.87-29.72,7.8-5.45,15.32-12,22.59-18.35,15.13-13.21,30.78-26.87,50.79-32.37,11.13-3.06,24.91-4.27,39.49-5.55,22.29-2,45.33-4,59.28-12.76a5,5,0,0,1,5.33,8.46c-16,10.07-40.26,12.2-63.73,14.26-14.12,1.24-27.45,2.41-37.71,5.23-17.81,4.9-31.93,17.22-46.87,30.26-7.47,6.52-15.19,13.26-23.44,19C258,440.57,211.09,445.23,158.39,445.23Z"></path><path d="M30.63,229.41a5,5,0,0,1-.89-9.92c18.58-3.4,37.79-6.92,55.48-13.87,63.45-25,103.23-99.48,88.68-166.09a5,5,0,0,1,9.77-2.13c7.54,34.54,1.85,72-16,105.5s-45.85,59.08-78.75,72c-18.59,7.32-38.29,10.92-57.34,14.41A5,5,0,0,1,30.63,229.41Z"></path><path d="M47.09,153.91q-1.06,0-2.13,0a5,5,0,0,1,.14-10h.15a66.29,66.29,0,0,0,67.55-75.62,5,5,0,0,1,9.9-1.41,77.16,77.16,0,0,1-18.63,61.6A77.22,77.22,0,0,1,47.09,153.91Z"></path><path d="M145.15,328.47a23.52,23.52,0,1,1,23.52-23.52A23.55,23.55,0,0,1,145.15,328.47Zm0-37a13.52,13.52,0,1,0,13.52,13.52A13.53,13.53,0,0,0,145.15,291.43Z"></path><path d="M251.72,503.44a251.72,251.72,0,0,1-178-429.71,251.72,251.72,0,1,1,356,356A250.07,250.07,0,0,1,251.72,503.44Zm0-473.44A221.72,221.72,0,0,0,94.94,408.5,221.72,221.72,0,0,0,408.5,94.94,220.27,220.27,0,0,0,251.72,30Z"></path></g></g></svg>